<?xml version="1.0" encoding="UTF-8" standalone="no"?><svg xmlns="http://www.w3.org/2000/svg" xmlns:xlink="http://www.w3.org/1999/xlink" contentScriptType="application/ecmascript" contentStyleType="text/css" height="309px" preserveAspectRatio="none" style="width:439px;height:309px;" version="1.1" viewBox="0 0 439 309" width="439px" zoomAndPan="magnify"><defs><filter height="300%" id="f1qyp9f74sirgu" width="300%" x="-1" y="-1"><feGaussianBlur result="blurOut" stdDeviation="2.0"/><feColorMatrix in="blurOut" result="blurOut2" type="matrix" values="0 0 0 0 0 0 0 0 0 0 0 0 0 0 0 0 0 0 .4 0"/><feOffset dx="4.0" dy="4.0" in="blurOut2" result="blurOut3"/><feBlend in="SourceGraphic" in2="blurOut3" mode="normal"/></filter></defs><g><line style="stroke:#A80036;stroke-width:1.0;stroke-dasharray:5.0,5.0;" x1="24" x2="24" y1="88.2969" y2="224.8281"/><line style="stroke:#A80036;stroke-width:1.0;stroke-dasharray:5.0,5.0;" x1="305.5" x2="305.5" y1="88.2969" y2="224.8281"/><line style="stroke:#A80036;stroke-width:1.0;stroke-dasharray:5.0,5.0;" x1="396.5" x2="396.5" y1="88.2969" y2="224.8281"/><text fill="#000000" font-family="sans-serif" font-size="14" lengthAdjust="spacingAndGlyphs" textLength="32" x="5" y="84.9951">Alice</text><ellipse cx="24" cy="15" fill="#FEFECE" filter="url(#f1qyp9f74sirgu)" rx="8" ry="8" style="stroke:#A80036;stroke-width:2.0;"/><path d="M24,23 L24,50 M11,31 L37,31 M24,50 L11,65 M24,50 L37,65 " fill="none" filter="url(#f1qyp9f74sirgu)" style="stroke:#A80036;stroke-width:2.0;"/><text fill="#000000" font-family="sans-serif" font-size="14" lengthAdjust="spacingAndGlyphs" textLength="32" x="5" y="236.8232">Alice</text><ellipse cx="24" cy="250.125" fill="#FEFECE" filter="url(#f1qyp9f74sirgu)" rx="8" ry="8" style="stroke:#A80036;stroke-width:2.0;"/><path d="M24,258.125 L24,285.125 M11,266.125 L37,266.125 M24,285.125 L11,300.125 M24,285.125 L37,300.125 " fill="none" filter="url(#f1qyp9f74sirgu)" style="stroke:#A80036;stroke-width:2.0;"/><text fill="#000000" font-family="sans-serif" font-size="14" lengthAdjust="spacingAndGlyphs" textLength="91" x="257.5" y="84.9951">Manufacturer</text><ellipse cx="306" cy="15" fill="#FEFECE" filter="url(#f1qyp9f74sirgu)" rx="8" ry="8" style="stroke:#A80036;stroke-width:2.0;"/><path d="M306,23 L306,50 M293,31 L319,31 M306,50 L293,65 M306,50 L319,65 " fill="none" filter="url(#f1qyp9f74sirgu)" style="stroke:#A80036;stroke-width:2.0;"/><text fill="#000000" font-family="sans-serif" font-size="14" lengthAdjust="spacingAndGlyphs" textLength="91" x="257.5" y="236.8232">Manufacturer</text><ellipse cx="306" cy="250.125" fill="#FEFECE" filter="url(#f1qyp9f74sirgu)" rx="8" ry="8" style="stroke:#A80036;stroke-width:2.0;"/><path d="M306,258.125 L306,285.125 M293,266.125 L319,266.125 M306,285.125 L293,300.125 M306,285.125 L319,300.125 " fill="none" filter="url(#f1qyp9f74sirgu)" style="stroke:#A80036;stroke-width:2.0;"/><rect fill="#FEFECE" filter="url(#f1qyp9f74sirgu)" height="30.2969" style="stroke:#A80036;stroke-width:1.5;" width="61" x="364.5" y="53"/><text fill="#000000" font-family="sans-serif" font-size="14" lengthAdjust="spacingAndGlyphs" textLength="47" x="371.5" y="72.9951">SoC[0]</text><rect fill="#FEFECE" filter="url(#f1qyp9f74sirgu)" height="30.2969" style="stroke:#A80036;stroke-width:1.5;" width="61" x="364.5" y="223.8281"/><text fill="#000000" font-family="sans-serif" font-size="14" lengthAdjust="spacingAndGlyphs" textLength="47" x="371.5" y="243.8232">SoC[0]</text><polygon fill="#A80036" points="294,115.4297,304,119.4297,294,123.4297,298,119.4297" style="stroke:#A80036;stroke-width:1.0;"/><line style="stroke:#A80036;stroke-width:1.0;" x1="24" x2="300" y1="119.4297" y2="119.4297"/><text fill="#000000" font-family="sans-serif" font-size="13" lengthAdjust="spacingAndGlyphs" textLength="216" x="31" y="114.3638">sendNewScript(scriptModification)</text><polygon fill="#A80036" points="35,144.5625,25,148.5625,35,152.5625,31,148.5625" style="stroke:#A80036;stroke-width:1.0;"/><line style="stroke:#A80036;stroke-width:1.0;" x1="29" x2="305" y1="148.5625" y2="148.5625"/><text fill="#000000" font-family="sans-serif" font-size="13" lengthAdjust="spacingAndGlyphs" textLength="258" x="41" y="143.4966">newScriptResp(signedScriptModification)</text><polygon fill="#A80036" points="385,173.6953,395,177.6953,385,181.6953,389,177.6953" style="stroke:#A80036;stroke-width:1.0;"/><line style="stroke:#A80036;stroke-width:1.0;" x1="24" x2="391" y1="177.6953" y2="177.6953"/><text fill="#000000" font-family="sans-serif" font-size="13" lengthAdjust="spacingAndGlyphs" textLength="247" x="31" y="172.6294">updateScript(signedScriptModification)</text><polygon fill="#A80036" points="35,202.8281,25,206.8281,35,210.8281,31,206.8281" style="stroke:#A80036;stroke-width:1.0;"/><line style="stroke:#A80036;stroke-width:1.0;" x1="29" x2="396" y1="206.8281" y2="206.8281"/><text fill="#000000" font-family="sans-serif" font-size="13" lengthAdjust="spacingAndGlyphs" textLength="138" x="41" y="201.7622">scriptResp(newScript)</text><!--MD5=[01de186883e49837c1c212bf505c4221]
@startuml ConfigurationModification
actor Alice
actor Manufacturer
participant "SoC[0]" as SoC_1

Alice -> Manufacturer : sendNewScript(scriptModification)
Manufacturer -> Alice: newScriptResp(signedScriptModification)

Alice -> SoC_1 : updateScript(signedScriptModification)

SoC_1 -> Alice : scriptResp(newScript)

@enduml

PlantUML version 1.2020.21(Mon Nov 30 17:40:11 CET 2020)
(GPL source distribution)
Java Runtime: OpenJDK Runtime Environment
JVM: OpenJDK 64-Bit Server VM
Default Encoding: UTF-8
Language: fr
Country: FR
--></g></svg>